<?xml version="1.0" encoding="UTF-8"?>
<svg width="15px" height="12px" viewBox="0 0 15 12" version="1.1" xmlns="http://www.w3.org/2000/svg" xmlns:xlink="http://www.w3.org/1999/xlink">
    <!-- Generator: Sketch 55.1 (78136) - https://sketchapp.com -->
    <title>audio-speaker-on</title>
    <desc>Created with Sketch.</desc>
    <g id="Page-1" stroke="none" stroke-width="1" fill="none" fill-rule="evenodd">
        <g id="Customize-Text" transform="translate(-326.000000, -330.000000)" fill="#888888" fill-rule="nonzero">
            <g id="audio-speaker-on" transform="translate(333.500000, 335.666667) scale(1, -1) translate(-333.500000, -335.666667) translate(326.000000, 329.166667)">
                <g id="Group-4" transform="translate(0.000000, 0.416667)">
                    <path d="M6.24782609,0.161770632 L3.39130435,2.30989138 L0.782608696,2.30989138 C0.352173913,2.30989138 0,2.6635454 0,3.09578921 L0,8.57087745 C0,9.00325225 0.352173913,9.35677529 0.782608696,9.35677529 L3.39130435,9.35677529 L6.24782609,11.504896 C6.76956522,11.897845 7.5,11.5310926 7.5,10.8761778 L7.5,0.790488899 C7.5,0.135574037 6.75652174,-0.231178285 6.24782609,0.161770632 Z" id="Path"></path>
                    <path d="M14.7197377,3.25565492 C14.3797587,2.91478169 13.813127,2.91478169 13.473148,3.25565492 L11.9873137,4.74539716 L10.5014795,3.25565492 C10.1615005,2.91478169 9.59486884,2.91478169 9.25488982,3.25565492 C8.91503673,3.59652814 8.91503673,4.16465018 9.25488982,4.50552341 L10.7408499,5.99526565 L9.25488982,7.48500789 C8.91503673,7.82588112 8.91503673,8.39400316 9.25488982,8.73487638 C9.43117524,8.91149921 9.65782791,9 9.88448059,9 C10.1112592,9 10.3377859,8.91162546 10.5140714,8.73487638 L12.0000315,7.24500789 L13.4857398,8.73487638 C13.6620252,8.91149921 13.8888038,9 14.1153305,9 C14.3421091,9 14.5687618,8.91162546 14.7449213,8.73487638 C15.0850262,8.39400316 15.0850262,7.82588112 14.7449213,7.48500789 L13.2339035,5.99526565 L14.7198636,4.50552341 C15.0597167,4.16465018 15.0597167,3.59652814 14.7197377,3.25565492 Z" id="Path"></path>
                </g>
            </g>
        </g>
    </g>
</svg>