<?xml version="1.0" encoding="UTF-8"?>
<svg width="15px" height="14px" viewBox="0 0 15 14" version="1.1" xmlns="http://www.w3.org/2000/svg" xmlns:xlink="http://www.w3.org/1999/xlink">
    <!-- Generator: Sketch 55.1 (78136) - https://sketchapp.com -->
    <title>audio-speaker-on copy</title>
    <desc>Created with Sketch.</desc>
    <g id="Page-1" stroke="none" stroke-width="1" fill="none" fill-rule="evenodd">
        <g id="Home" transform="translate(-326.000000, -451.000000)" fill="#888888" fill-rule="nonzero">
            <g id="audio-speaker-on-copy" transform="translate(333.500000, 458.083333) scale(1, -1) translate(-333.500000, -458.083333) translate(326.000000, 451.000000)">
                <path d="M6.24782609,1.41177063 L3.39130435,3.55989138 L0.782608696,3.55989138 C0.352173913,3.55989138 0,3.9135454 0,4.34578921 L0,9.82087745 C0,10.2532522 0.352173913,10.6067753 0.782608696,10.6067753 L3.39130435,10.6067753 L6.24782609,12.754896 C6.76956522,13.147845 7.5,12.7810926 7.5,12.1261778 L7.5,2.0404889 C7.5,1.38557404 6.75652174,1.01882171 6.24782609,1.41177063 Z" id="Path"></path>
                <path d="M9.87470683,2.34505346 C9.52568734,1.99609329 8.94398818,1.99609329 8.59509795,2.34505346 C8.24607846,2.69401363 8.24607846,3.27561391 8.59509795,3.62457408 C10.2755622,5.30475267 10.2755622,8.03194102 8.59509795,9.71211961 C8.24607846,10.0610798 8.24607846,10.6426801 8.59509795,10.991511 C8.77594176,11.1724533 9.00862142,11.25 9.22837444,11.25 C9.44812745,11.25 9.69386303,11.1596581 9.86178018,10.9785865 C12.2661367,8.61341205 12.2661367,4.73607684 9.87470683,2.34505346 Z" id="Path"></path>
                <path d="M11.0950814,0.678445099 C10.746084,1.0296212 10.746084,1.6149147 11.0950814,1.96609081 C12.4527968,3.33177565 13.2029021,5.13968224 13.2029021,7.07765407 C13.2029021,9.01562589 12.4527968,10.8235325 11.0950814,12.1892173 C10.746084,12.5403934 10.746084,13.1256869 11.0950814,13.476863 C11.2761102,13.6588243 11.5088614,13.75 11.7286819,13.75 C11.9614331,13.75 12.1941843,13.6589543 12.3622824,13.4898696 C14.0561939,11.7860151 15,9.50987373 15,7.09066059 C15,4.67144744 14.0689952,2.40831256 12.3622824,0.691451621 C12.0260862,0.327268997 11.4571389,0.327268997 11.0950814,0.678445099 Z" id="Path"></path>
            </g>
        </g>
    </g>
</svg>