<?xml version="1.0" encoding="UTF-8"?>
<svg width="66px" height="66px" viewBox="0 0 66 66" version="1.1" xmlns="http://www.w3.org/2000/svg" xmlns:xlink="http://www.w3.org/1999/xlink">
    <!-- Generator: Sketch 55.1 (78136) - https://sketchapp.com -->
    <title>Group 5</title>
    <desc>Created with Sketch.</desc>
    <g id="Page-1" stroke="none" stroke-width="1" fill="none" fill-rule="evenodd">
        <g id="Home" transform="translate(-290.000000, -716.000000)">
            <g id="Group-5" transform="translate(290.000000, 716.000000)">
                <g id="Oval-2" fill="#D4100E">
                    <circle id="Oval" cx="33" cy="33" r="33"></circle>
                </g>
                <g id="shopping-basket" transform="translate(20.000000, 20.000000)" fill="#FFFFFF" fill-rule="nonzero">
                    <path d="M25.8812439,9.29020408 L22.9038975,9.29020408 C22.8432479,4.15469388 18.6473949,0 13.4976883,0 C8.34798171,0 4.1521287,4.15469388 4.09699266,9.29020408 L1.11964624,9.29020408 C0.0665477895,9.37285714 -0.0437243,10.2765306 0.0114117447,10.6016327 L2.63588747,26.0632653 C2.72961875,26.6032653 3.19827513,27 3.74412197,27 L23.2512546,27 C23.802615,27 24.2712714,26.6032653 24.3594891,26.0632653 L26.9894784,10.6016327 C27.0446145,10.2765306 26.912288,9.36734694 25.8812439,9.29020408 Z M13.4976883,2.24816327 C17.4068339,2.24816327 20.5881836,5.3944898 20.6488333,9.28469388 L6.34654328,9.28469388 C6.40719293,5.3944898 9.58854271,2.24816327 13.4976883,2.24816327 Z M22.3029146,24.7518367 L4.69797555,24.7518367 L2.44842492,11.5383673 L24.5469516,11.5383673 L22.3029146,24.7518367 Z" id="Shape"></path>
                    <path d="M9.16073969,17 L18.8392603,17 C19.4822191,17 20,16.3308824 20,15.5 C20,14.6691176 19.4822191,14 18.8392603,14 L9.16073969,14 C8.51778094,14 8,14.6691176 8,15.5 C8,16.3308824 8.52347084,17 9.16073969,17 Z" id="Path"></path>
                    <path d="M9.16073969,22 L18.8392603,22 C19.4822191,22 20,21.3308824 20,20.5 C20,19.6691176 19.4822191,19 18.8392603,19 L9.16073969,19 C8.51778094,19 8,19.6691176 8,20.5 C8,21.3308824 8.52347084,22 9.16073969,22 Z" id="Path"></path>
                </g>
            </g>
        </g>
    </g>
</svg>