<?xml version="1.0" encoding="UTF-8"?>
<svg width="25px" height="25px" viewBox="0 0 25 25" version="1.1" xmlns="http://www.w3.org/2000/svg" xmlns:xlink="http://www.w3.org/1999/xlink">
    <!-- Generator: Sketch 55.1 (78136) - https://sketchapp.com -->
    <title>discount</title>
    <desc>Created with Sketch.</desc>
    <g id="Page-1" stroke="none" stroke-width="1" fill="none" fill-rule="evenodd">
        <g id="Order-Summary" transform="translate(-34.000000, -292.000000)" fill-rule="nonzero">
            <g id="discount" transform="translate(34.000000, 292.000000)">
                <path d="M10.3094542,10.9803119 C9.44580897,10.1167154 8.04064327,10.1166667 7.17699805,10.9803606 C6.75867446,11.3987329 6.52821637,11.9549708 6.52821637,12.5465887 C6.52821637,13.1382066 6.75862573,13.6944932 7.17699805,14.1128168 C7.59537037,14.5311891 8.15160819,14.7615984 8.74322612,14.7615984 C9.33484405,14.7615984 9.8911306,14.5311891 10.3094542,14.1128168 C11.1730994,13.2491715 11.1730994,11.8440058 10.3094542,10.9803119 Z M9.18918129,12.9924464 C9.07007797,13.1115497 8.91174464,13.1771442 8.74332359,13.1771442 C8.57490253,13.1771442 8.4165692,13.1115497 8.29751462,12.9924464 C8.17841131,12.8733431 8.11281676,12.7150585 8.11281676,12.5466374 C8.11281676,12.3782164 8.17841131,12.219883 8.29751462,12.1007797 C8.42046784,11.9778265 8.58192008,11.916423 8.74337232,11.916423 C8.90482456,11.916423 9.0662768,11.977924 9.18918129,12.1007797 C9.43494152,12.3465887 9.43494152,12.7465887 9.18918129,12.9924464 Z" id="Shape" fill="#000000"></path>
                <path d="M17.7832359,10.8473197 C16.9196394,9.9837232 15.514425,9.9837232 14.6507797,10.8473684 C14.2324561,11.265692 14.0019981,11.8219786 14.0019981,12.4135965 C14.0019981,13.0052144 14.2323587,13.561501 14.6507797,13.9798246 C15.0826023,14.4115984 15.6497563,14.6274854 16.2170078,14.6274854 C16.7842105,14.6274854 17.3514133,14.4115984 17.7832359,13.9797758 C18.2016569,13.5614035 18.4320175,13.0051657 18.4320175,12.4135478 C18.4320175,11.8219298 18.2015595,11.2656433 17.7832359,10.8473197 Z M16.6629142,12.8594542 C16.4171053,13.1053119 16.0170078,13.1053119 15.7711501,12.8594542 C15.6520468,12.7403509 15.5864522,12.5820175 15.5864522,12.4135965 C15.5864522,12.2451754 15.6520468,12.0868421 15.7711501,11.9677388 C16.0170565,11.7219298 16.4170565,11.7218811 16.6629142,11.9677388 C16.7820175,12.0868421 16.8476121,12.2451267 16.8476121,12.4135478 C16.8476121,12.5819688 16.7820175,12.7403509 16.6629142,12.8594542 Z" id="Shape" fill="#272527"></path>
                <polygon id="Rectangle" fill="#000000" transform="translate(12.476431, 12.475209) rotate(-6.090275) translate(-12.476431, -12.475209) " points="11.6841443 7.17078275 13.2687174 7.17078275 13.2687174 17.7796346 11.6841443 17.7796346"></polygon>
                <path d="M22.7705166,8.87446394 C23.0402047,8.04858674 23.102924,7.17017544 22.950731,6.3039961 C22.7615497,5.22782651 22.2519493,4.24931774 21.4769493,3.47431774 C20.7019493,2.69931774 19.7234893,2.18971735 18.647271,2.00053606 C17.7810429,1.84819688 16.9025828,1.91101365 16.0768031,2.18070175 L13.8961014,0 L4.87329435e-05,13.8960526 L2.18079922,16.0768031 C1.91111111,16.9026803 1.84839181,17.7810916 2.00063353,18.647271 C2.18981481,19.7234405 2.6994152,20.7019493 3.4744152,21.4769493 C4.2494152,22.2519493 5.22792398,22.7615497 6.30409357,22.950731 C7.17032164,23.1029727 8.04868421,23.0402534 8.8745614,22.7705166 L11.0553119,24.9513158 L24.9513158,11.0552632 L22.7705166,8.87446394 Z M11.0552144,22.7104776 L9.24590643,20.9011209 L8.74814815,21.1233431 C7.34795322,21.7486355 5.6788499,21.4404483 4.59478558,20.3564327 C3.51081871,19.2724172 3.20258285,17.6032651 3.82787524,16.2030702 L4.05009747,15.7053119 L2.24078947,13.8960039 L13.8961014,2.24078947 L15.7054094,4.05009747 L16.2031676,3.82787524 C17.6033138,3.20258285 19.2725146,3.51076998 20.3565789,4.59478558 C21.4405458,5.67875244 21.7487329,7.34785575 21.1234893,8.74814815 L20.9011696,9.24590643 L22.710575,11.0552144 L11.0552144,22.7104776 Z" id="Shape" fill="#000000"></path>
            </g>
        </g>
    </g>
</svg>