<?xml version="1.0" encoding="UTF-8"?>
<svg width="19px" height="15px" viewBox="0 0 19 15" version="1.1" xmlns="http://www.w3.org/2000/svg" xmlns:xlink="http://www.w3.org/1999/xlink">
    <!-- Generator: Sketch 55.1 (78136) - https://sketchapp.com -->
    <title>filter</title>
    <desc>Created with Sketch.</desc>
    <g id="Page-1" stroke="none" stroke-width="1" fill="none" fill-rule="evenodd">
        <g id="Home" transform="translate(-340.000000, -279.000000)" fill="#000000" fill-rule="nonzero">
            <g id="filter" transform="translate(340.000000, 278.500000)">
                <path d="M18.4324635,0.886409684 C18.313354,0.650763334 18.0559747,0.5 17.7728961,0.5 L1.2271079,0.5 C0.944064483,0.5 0.686685165,0.650731072 0.567540444,0.886409684 C0.448395722,1.1220883 0.489141881,1.39974061 0.671919517,1.5981236 L7.11832045,8.59356812 L7.11832045,13.3143672 C7.11832045,13.5670805 7.27392226,13.7981455 7.5202625,13.9111938 L10.8294201,15.4295706 C10.9320414,15.4766741 11.0434517,15.5 11.1545808,15.5 C11.287542,15.5 11.4200812,15.4665759 11.5368705,15.4003407 C11.7512185,15.2787428 11.8817187,15.0639704 11.8817187,14.8327117 L11.8817187,8.59356812 L18.3281196,1.5981236 C18.5108973,1.39974061 18.5515731,1.12205603 18.4324635,0.886409684 Z M10.5993573,7.91837551 C10.4883688,8.03884422 10.4274781,8.19151105 10.4274781,8.34924312 L10.4274781,13.7531069 L8.5725259,12.9019861 L8.5725259,8.34927538 C8.5725259,8.19151105 8.51160002,8.03887649 8.40061157,7.91840777 L2.79427057,1.834512 L16.2057686,1.834512 L10.5993573,7.91837551 Z" id="Shape"></path>
            </g>
        </g>
    </g>
</svg>