<?xml version="1.0" encoding="UTF-8"?>
<svg width="24px" height="16px" viewBox="0 0 24 16" version="1.1" xmlns="http://www.w3.org/2000/svg" xmlns:xlink="http://www.w3.org/1999/xlink">
    <!-- Generator: Sketch 55.1 (78136) - https://sketchapp.com -->
    <title>list-symbol-of-three-items-with-dots</title>
    <desc>Created with Sketch.</desc>
    <g id="Page-1" stroke="none" stroke-width="1" fill="none" fill-rule="evenodd">
        <g id="Customize-Text" transform="translate(-335.000000, -528.000000)" fill="#888888" fill-rule="nonzero">
            <g id="list-symbol-of-three-items-with-dots" transform="translate(335.000000, 528.000000)">
                <path d="M2.31360362,0 C1.08419148,0 0.0877862595,0.976710881 0.0877862595,2.18178637 C0.0877862595,3.38686185 1.08419148,4.36360957 2.31360362,4.36360957 C3.54301576,4.36360957 4.53942098,3.38686185 4.53942098,2.18178637 C4.53942098,0.976710881 3.54297818,0 2.31360362,0 Z M2.31360362,5.81815838 C1.08419148,5.81815838 0.0877862595,6.7949061 0.0877862595,7.99998158 C0.0877862595,9.2050939 1.08419148,10.1818048 2.31360362,10.1818048 C3.54301576,10.1818048 4.53942098,9.2050939 4.53942098,7.99998158 C4.53942098,6.7949061 3.54297818,5.81815838 2.31360362,5.81815838 Z M2.31360362,11.6363536 C1.08419148,11.6363536 0.0877862595,12.6130645 0.0877862595,13.8181768 C0.0877862595,15.0232523 1.08419148,16 2.31360362,16 C3.54301576,16 4.53942098,15.0232523 4.53942098,13.8181768 C4.53942098,12.6130645 3.54297818,11.6363536 2.31360362,11.6363536 Z M7.50713989,3.63633517 L21.603908,3.63633517 C22.4237541,3.63633517 23.0877863,2.9854279 23.0877863,2.18178637 C23.0877863,1.37814484 22.4237541,0.727237563 21.603908,0.727237563 L7.50713989,0.727237563 C6.68729378,0.727237563 6.02326164,1.37814484 6.02326164,2.18178637 C6.02326164,2.9854279 6.68729378,3.63633517 7.50713989,3.63633517 Z M21.6039456,6.54543278 L7.50713989,6.54543278 C6.68729378,6.54543278 6.02326164,7.19634005 6.02326164,7.99998158 C6.02326164,8.80358627 6.68729378,9.45453038 7.50713989,9.45453038 L21.603908,9.45453038 C22.4237541,9.45453038 23.0877863,8.80358627 23.0877863,7.99998158 C23.0877863,7.19634005 22.4237917,6.54543278 21.6039456,6.54543278 Z M21.6039456,12.3635912 L7.50713989,12.3635912 C6.68729378,12.3635912 6.02326164,13.0145353 6.02326164,13.81814 C6.02326164,14.6217446 6.68729378,15.2726519 7.50713989,15.2726519 L21.603908,15.2726519 C22.4237541,15.2726519 23.0877863,14.6217446 23.0877863,13.81814 C23.0877863,13.0145353 22.4237917,12.3635912 21.6039456,12.3635912 Z" id="Shape"></path>
            </g>
        </g>
    </g>
</svg>