<?xml version="1.0" encoding="UTF-8"?>
<svg width="18px" height="20px" viewBox="0 0 18 20" version="1.1" xmlns="http://www.w3.org/2000/svg" xmlns:xlink="http://www.w3.org/1999/xlink">
    <!-- Generator: Sketch 55.1 (78136) - https://sketchapp.com -->
    <title>turn-off (1)</title>
    <desc>Created with Sketch.</desc>
    <g id="Page-1" stroke="none" stroke-width="1" fill="none" fill-rule="evenodd">
        <g id="My-Account" transform="translate(-342.000000, -45.000000)" fill="#272527" fill-rule="nonzero">
            <g id="turn-off-(1)" transform="translate(342.000000, 45.000000)">
                <path d="M12.5994324,3.27426556 C12.1853435,3.10415599 11.703026,3.28191094 11.5221186,3.67128405 C11.3412112,4.06065717 11.5302492,4.51418651 11.9443381,4.68429608 C14.6064423,5.77787304 16.3635876,8.25371194 16.3635876,11.0326611 C16.3635876,14.8565741 13.0663706,17.9567732 8.99996165,17.9567732 C4.93301572,17.9567732 1.63633574,14.8568626 1.63633574,11.0326611 C1.63633574,8.25432502 3.39286734,5.77848611 6.05420447,4.68418789 C6.46821666,4.51397014 6.65710134,4.06036867 6.47604052,3.67106767 C6.29501805,3.28176668 5.81262385,3.10415599 5.39861165,3.27440981 C2.14676542,4.61144865 0,7.63735778 0,11.032625 C0,15.7066171 4.0293224,19.4954407 9,19.4954407 C13.9701407,19.4954407 18,15.7063646 18,11.032625 C18,7.63656439 15.8523525,4.61051101 12.5994324,3.27426556 Z" id="Path"></path>
                <path d="M8.57142857,9.20972644 C9.0448199,9.20972644 9.42857143,8.86086736 9.42857143,8.43051895 L9.42857143,1.4175419 C9.42861161,0.987156955 9.0448199,0.638297872 8.57142857,0.638297872 C8.09803725,0.638297872 7.71428571,0.987156955 7.71428571,1.41750537 L7.71428571,8.43048242 C7.71428571,8.86083084 8.09803725,9.20972644 8.57142857,9.20972644 Z" id="Path"></path>
            </g>
        </g>
    </g>
</svg>