<?xml version="1.0" encoding="UTF-8"?>
<svg width="18px" height="18px" viewBox="0 0 18 18" version="1.1" xmlns="http://www.w3.org/2000/svg" xmlns:xlink="http://www.w3.org/1999/xlink">
    <!-- Generator: Sketch 55.1 (78136) - https://sketchapp.com -->
    <title>Group 4</title>
    <desc>Created with Sketch.</desc>
    <g id="Page-1" stroke="none" stroke-width="1" fill="none" fill-rule="evenodd">
        <g id="Order-Summary" transform="translate(-256.000000, -130.000000)">
            <g id="Group-2" transform="translate(16.000000, 106.000000)">
                <g id="Group-3" transform="translate(178.000000, 15.000000)">
                    <g id="Group-4" transform="translate(62.000000, 9.000000)">
                        <circle id="Oval" fill="#EFEBE9" cx="9" cy="9" r="9"></circle>
                        <path d="M12.4145776,8.41457761 L9.57737588,8.41457761 L9.57737588,5.57742239 C9.57737588,5.25633769 9.3170847,4.996 8.99595349,4.996 C8.6749153,4.996 8.41453109,5.25633769 8.41453109,5.57742239 L8.41453109,8.41457761 L5.57742239,8.41457761 C5.25633769,8.41457761 4.996,8.6749153 4.996,8.996 C4.996,9.31703819 5.25633769,9.57742239 5.57742239,9.57742239 L8.41453109,9.57742239 L8.41453109,12.4145776 C8.41453109,12.7356158 8.6749153,12.996 8.99595349,12.996 C9.3170847,12.996 9.57737588,12.7356158 9.57737588,12.4145776 L9.57737588,9.57742239 L12.4145776,9.57742239 C12.7356623,9.57742239 12.996,9.31703819 12.996,8.996 C12.996,8.6749153 12.7356623,8.41457761 12.4145776,8.41457761 Z" id="Path" fill="#A29A92" fill-rule="nonzero" transform="translate(8.996000, 8.996000) scale(1, -1) translate(-8.996000, -8.996000) "></path>
                    </g>
                </g>
            </g>
        </g>
    </g>
</svg>